<svg width="188" height="175" viewBox="0 0 188 175" fill="none" xmlns="http://www.w3.org/2000/svg">
<path fill-rule="evenodd" clip-rule="evenodd" d="M144.45 0.0950953C144.577 -0.0316983 144.782 -0.0316983 144.909 0.0950953L146.975 2.16132C147.102 2.28811 147.102 2.49368 146.975 2.62048C146.849 2.74727 146.643 2.74727 146.516 2.62048L145.004 1.10851L145.004 173.891L146.516 172.38C146.643 172.253 146.849 172.253 146.975 172.38C147.102 172.506 147.102 172.712 146.975 172.839L144.909 174.905C144.782 175.032 144.577 175.032 144.45 174.905L142.384 172.839C142.257 172.712 142.257 172.506 142.384 172.38C142.511 172.253 142.716 172.253 142.843 172.38L144.355 173.891L144.355 1.10851L142.843 2.62048C142.716 2.74727 142.511 2.74727 142.384 2.62048C142.257 2.49368 142.257 2.28811 142.384 2.16132L144.45 0.0950953Z" fill="#D3D3D3"/>
<path fill-rule="evenodd" clip-rule="evenodd" d="M1.09879 67.4963C1.03749 67.3278 1.12441 67.1415 1.29292 67.0802L4.03897 66.0813C4.20749 66.02 4.39378 66.107 4.45508 66.2755C4.51637 66.444 4.42946 66.6303 4.26094 66.6916L2.25151 67.4225L185.246 152.799L184.516 150.789C184.454 150.621 184.541 150.434 184.71 150.373C184.878 150.312 185.064 150.399 185.126 150.567L186.125 153.313C186.186 153.482 186.099 153.668 185.93 153.729L183.184 154.728C183.016 154.79 182.83 154.703 182.768 154.534C182.707 154.366 182.794 154.179 182.962 154.118L184.972 153.387L1.97696 68.011L2.70789 70.0204C2.76918 70.1889 2.68227 70.3752 2.51376 70.4365C2.34524 70.4978 2.15895 70.4109 2.09765 70.2424L1.09879 67.4963Z" fill="#D3D3D3"/>
<path fill-rule="evenodd" clip-rule="evenodd" d="M1.1531 104.7C0.985685 104.636 0.90204 104.448 0.966273 104.281L2.01301 101.553C2.07724 101.385 2.26503 101.302 2.43244 101.366C2.59986 101.43 2.6835 101.618 2.61927 101.785L1.85332 103.782L184.837 22.2766L182.841 21.5107C182.673 21.4465 182.589 21.2587 182.654 21.0912C182.718 20.9238 182.906 20.8402 183.073 20.9044L185.801 21.9512C185.969 22.0154 186.052 22.2032 185.988 22.3706L184.941 25.0988C184.877 25.2662 184.689 25.3498 184.522 25.2856C184.355 25.2214 184.271 25.0336 184.335 24.8662L185.101 22.8698L2.11753 104.375L4.11387 105.141C4.28128 105.205 4.36493 105.393 4.3007 105.56C4.23646 105.728 4.04868 105.811 3.88126 105.747L1.1531 104.7Z" fill="#D3D3D3"/>
<path d="M67.5692 86.3637C67.5692 99.8122 56.6671 110.714 43.2186 110.714C29.7701 110.714 18.8679 99.8122 18.8679 86.3637C18.8679 72.9152 29.7701 62.013 43.2186 62.013C56.6671 62.013 67.5692 72.9152 67.5692 86.3637Z" fill="#31C63F"/>
<path d="M168.868 42.5325C168.868 55.981 157.966 66.8832 144.517 66.8832C131.069 66.8832 120.167 55.981 120.167 42.5325C120.167 29.084 131.069 18.1819 144.517 18.1819C157.966 18.1819 168.868 29.084 168.868 42.5325Z" fill="#FFA41D"/>
<path d="M168.868 132.143C168.868 145.591 157.966 156.493 144.517 156.493C131.069 156.493 120.167 145.591 120.167 132.143C120.167 118.694 131.069 107.792 144.517 107.792C157.966 107.792 168.868 118.694 168.868 132.143Z" fill="#F323C6"/>
<path d="M46.4564 98.7013H40.7017L32.1726 75.8725H38.5932L44.9186 94.2465L50.6417 75.8725H54.5416L46.4564 98.7013Z" fill="white"/>
<path d="M156.395 42.7747C156.395 43.8844 156.247 44.9413 155.951 45.9453C155.655 46.9388 155.238 47.8583 154.699 48.7038C154.17 49.5493 153.536 50.3156 152.797 51.0025C152.057 51.6789 151.238 52.255 150.339 52.7306C149.451 53.2062 148.495 53.5761 147.47 53.8403C146.455 54.0939 145.409 54.2208 144.331 54.2208H134.264V31.392H144.331C145.409 31.392 146.455 31.5189 147.47 31.7725C148.484 32.0262 149.436 32.3908 150.323 32.8664C151.222 33.3314 152.041 33.9021 152.781 34.5785C153.531 35.2549 154.17 36.0159 154.699 36.8614C155.238 37.6964 155.655 38.6158 155.951 39.6199C156.247 40.6134 156.395 41.665 156.395 42.7747ZM150.006 42.7747C150.006 41.5381 149.853 40.365 149.547 39.2553C149.251 38.135 148.786 37.1521 148.152 36.3065C147.517 35.461 146.709 34.7899 145.726 34.2932C144.754 33.7964 143.586 33.5481 142.222 33.5481H140.558V52.0013H142.222C143.565 52.0013 144.722 51.7529 145.694 51.2562C146.677 50.7489 147.486 50.0725 148.12 49.227C148.765 48.3709 149.24 47.388 149.547 46.2783C149.853 45.1685 150.006 44.0007 150.006 42.7747Z" fill="white"/>
<path d="M156.395 133.034C156.395 134.144 156.247 135.201 155.951 136.205C155.655 137.199 155.238 138.118 154.699 138.964C154.17 139.809 153.536 140.575 152.797 141.262C152.057 141.939 151.238 142.515 150.339 142.99C149.451 143.466 148.495 143.836 147.47 144.1C146.455 144.354 145.409 144.481 144.331 144.481H134.264V121.652H144.331C145.409 121.652 146.455 121.779 147.47 122.032C148.484 122.286 149.436 122.651 150.323 123.126C151.222 123.591 152.041 124.162 152.781 124.838C153.531 125.515 154.17 126.276 154.699 127.121C155.238 127.956 155.655 128.876 155.951 129.88C156.247 130.873 156.395 131.925 156.395 133.034ZM150.006 133.034C150.006 131.798 149.853 130.625 149.547 129.515C149.251 128.395 148.786 127.412 148.152 126.566C147.517 125.721 146.709 125.05 145.726 124.553C144.754 124.056 143.586 123.808 142.222 123.808H140.558V142.261H142.222C143.565 142.261 144.722 142.013 145.694 141.516C146.677 141.009 147.486 140.332 148.12 139.487C148.765 138.631 149.24 137.648 149.547 136.538C149.853 135.428 150.006 134.26 150.006 133.034Z" fill="white"/>
<path d="M143.642 75.974H146.045V98.7013H143.642V75.974Z" fill="black"/>
<path d="M109.214 75.974H120.253C121.919 75.974 123.251 76.4502 124.246 77.4026C125.264 78.3333 125.772 79.5671 125.772 81.1039V83.474C125.772 84.6212 125.404 85.6385 124.668 86.5259C123.932 87.3918 122.948 88.0086 121.714 88.3766V88.4091C122.363 88.7554 122.948 89.3073 123.467 90.0649C124.008 90.8225 124.419 91.6775 124.701 92.6298L126.487 98.7013H124.019L122.233 92.6298C121.93 91.5692 121.4 90.7143 120.642 90.0649C119.907 89.4156 119.095 89.0909 118.207 89.0909H111.616V98.7013H109.214V75.974ZM119.409 86.948C120.599 86.948 121.552 86.6342 122.266 86.0065C123.002 85.3571 123.37 84.513 123.37 83.474V80.974C123.37 80.1082 123.078 79.4156 122.493 78.8961C121.909 78.3766 121.14 78.1169 120.188 78.1169H111.616V86.948H119.409Z" fill="black"/>
<path d="M78.8694 98.7013C78.1984 98.7013 77.6789 98.5173 77.311 98.1494C76.943 97.7597 76.759 97.2294 76.759 96.5585V75.974H92.0188V78.052H79.1616V86.039H91.0447V88.1169H79.1616V96.6234H92.0188V98.7013H78.8694Z" fill="black"/>
</svg>
